HIERARCHY
ROOT Hips
{
 OFFSET 0.000000 0.000000 0.000000
 CHANNELS 6 Xposition Yposition Zposition Yrotation Xrotation Zrotation
 JOINT Chest
 {
  OFFSET 0.000000 9.585900 0.002600
  CHANNELS 3 Yrotation Xrotation Zrotation
  JOINT Chest2
  {
   OFFSET 0.000000 9.601200 -0.005300
   CHANNELS 3 Yrotation Xrotation Zrotation
   JOINT Chest3
   {
    OFFSET 0.000000 9.561800 0.000000
    CHANNELS 3 Yrotation Xrotation Zrotation
    JOINT Chest4
    {
     OFFSET 0.000000 9.552100 0.000000
     CHANNELS 3 Yrotation Xrotation Zrotation
     JOINT Neck
     {
      OFFSET 0.000000 14.453000 0.000000
      CHANNELS 3 Yrotation Xrotation Zrotation
      JOINT Head
      {
       OFFSET 0.000000 8.936500 -0.011300
       CHANNELS 3 Yrotation Xrotation Zrotation
       End Site
       {
        OFFSET 0.000000 17.073600 -0.006000
       }
      }
     }
     JOINT RightCollar
     {
      OFFSET -2.921100 9.558500 0.000000
      CHANNELS 3 Yrotation Xrotation Zrotation
      JOINT RightShoulder
      {
       OFFSET -13.519700 0.000000 0.000000
       CHANNELS 3 Yrotation Xrotation Zrotation
       JOINT RightElbow
       {
        OFFSET 0.000000 -29.696600 0.000000
        CHANNELS 3 Yrotation Xrotation Zrotation
        JOINT RightWrist
        {
         OFFSET 0.000000 -24.004700 0.000000
         CHANNELS 3 Yrotation Xrotation Zrotation
         End Site
         {
          OFFSET 0.000000 -17.728500 0.000000
         }
        }
       }
      }
     }
     JOINT LeftCollar
     {
      OFFSET 2.921100 9.558500 0.000000
      CHANNELS 3 Yrotation Xrotation Zrotation
      JOINT LeftShoulder
      {
       OFFSET 13.519700 0.000000 0.000000
       CHANNELS 3 Yrotation Xrotation Zrotation
       JOINT LeftElbow
       {
        OFFSET 0.000000 -29.696600 0.000000
        CHANNELS 3 Yrotation Xrotation Zrotation
        JOINT LeftWrist
        {
         OFFSET 0.000000 -24.004700 0.000000
         CHANNELS 3 Yrotation Xrotation Zrotation
         End Site
         {
          OFFSET 0.000000 -17.728500 0.000000
         }
        }
       }
      }
     }
    }
   }
  }
 }
 JOINT RightHip
 {
  OFFSET -7.771700 -0.012900 -0.001300
  CHANNELS 3 Yrotation Xrotation Zrotation
  JOINT RightKnee
  {
   OFFSET 0.000000 -40.869800 0.001200
   CHANNELS 3 Yrotation Xrotation Zrotation
   JOINT RightAnkle
   {
    OFFSET 0.000000 -39.717900 0.002100
    CHANNELS 3 Yrotation Xrotation Zrotation
    JOINT RightToe
    {
     OFFSET 0.000000 -4.965400 11.033500
     CHANNELS 3 Yrotation Xrotation Zrotation
     End Site
     {
      OFFSET 0.000000 -1.423100 5.872300
     }
    }
   }
  }
 }
 JOINT LeftHip
 {
  OFFSET 7.771700 -0.012900 -0.001300
  CHANNELS 3 Yrotation Xrotation Zrotation
  JOINT LeftKnee
  {
   OFFSET 0.000000 -40.869800 0.001200
   CHANNELS 3 Yrotation Xrotation Zrotation
   JOINT LeftAnkle
   {
    OFFSET 0.000000 -39.717900 0.002100
    CHANNELS 3 Yrotation Xrotation Zrotation
    JOINT LeftToe
    {
     OFFSET 0.000000 -4.965400 11.033500
     CHANNELS 3 Yrotation Xrotation Zrotation
     End Site
     {
      OFFSET 0.000000 -1.423100 5.872300
     }
    }
   }
  }
 }
}
MOTION
Frames: 5
Frame Time: 0.008333
-43.713868 57.084599 20.106226 160.891590 -13.317771 0.516409 2.515326 11.450890 1.570054 0.156761 0.844238 0.040192 0.268629 1.444819 0.070187 2.058078 10.714050 0.690054 2.049639 17.311144 -1.259982 4.209346 -3.572530 -3.017897 1.916180 12.535576 1.737510 -5.451142 -11.548463 -9.225643 173.534356 -79.480430 -150.700721 -2.467766 0.468709 -29.757882 -5.483895 13.364035 -3.210420 13.828491 -10.288118 3.221200 145.043707 -77.550875 -166.766748 -4.646930 8.813720 6.040766 -7.764747 -59.739518 2.724920 -33.545271 72.387568 -35.579154 -2.755887 -6.518979 0.695453 -0.680690 0.927275 -0.314537 1.511574 -61.847112 13.764348 39.934579 64.126891 33.612485 -18.322199 -8.913735 5.193062 0.252535 -0.696127 0.114546
-43.728353 57.079447 20.156695 160.907885 -13.370048 0.506994 2.521190 11.652679 1.604513 0.159150 0.873667 0.042849 0.272447 1.493564 0.074719 2.054222 10.882501 0.716306 2.030866 17.218104 -1.282479 4.185776 -3.745087 -3.056968 1.869811 12.540984 1.655168 -5.512789 -11.549053 -9.161931 172.455750 -79.287004 -149.870789 -2.401016 0.571184 -29.749651 -5.542079 13.354917 -3.267054 13.791470 -10.370808 3.253939 146.627896 -77.595478 -168.128907 -4.749590 8.942095 6.007730 -7.730022 -59.691201 2.716205 -33.465895 72.318456 -35.510076 -2.777617 -6.456217 0.715907 -0.672970 0.932048 -0.316514 1.428968 -61.804947 13.801327 39.895224 64.080747 33.563493 -18.296583 -8.883742 5.185674 0.224507 -0.712451 0.105102
-43.743446 57.073259 20.208470 160.916474 -13.411395 0.494112 2.536194 11.848229 1.637239 0.162495 0.903593 0.045137 0.277931 1.543087 0.078608 2.062037 11.049275 0.737902 2.010298 17.123304 -1.296508 4.156275 -3.921246 -3.079912 1.804557 12.538051 1.582692 -5.596613 -11.538467 -9.102831 171.345843 -79.069438 -148.990524 -2.324794 0.687667 -29.765114 -5.603295 13.330509 -3.310017 13.762748 -10.453067 3.296399 148.464229 -77.625884 -169.732644 -4.875148 9.101349 5.969263 -7.699635 -59.655193 2.720491 -33.395785 72.249145 -35.446813 -2.802852 -6.391529 0.734048 -0.663784 0.943165 -0.320089 1.361281 -61.781261 13.837900 39.853608 64.040768 33.516789 -18.268504 -8.843515 5.178233 0.201002 -0.741546 0.099510
-43.760893 57.066528 20.260871 160.930990 -13.437901 0.483381 2.543981 12.029838 1.659587 0.166889 0.933946 0.047148 0.285165 1.593280 0.082066 2.081805 11.213908 0.756609 1.989460 17.029043 -1.304056 4.124083 -4.096755 -3.090780 1.719708 12.532670 1.515196 -5.707820 -11.517781 -9.041920 170.212266 -78.832797 -148.067357 -2.246869 0.818067 -29.797720 -5.665787 13.297945 -3.339616 13.745991 -10.539830 3.345091 150.553068 -77.642230 -171.578422 -5.020617 9.290575 5.938010 -7.686515 -59.634206 2.724592 -33.291633 72.186928 -35.352004 -2.822571 -6.330583 0.753504 -0.674397 0.946250 -0.327764 1.299817 -61.795245 13.850590 39.864859 64.007901 33.535761 -18.225539 -8.750641 5.169835 0.144013 -0.829294 0.085666
-43.780205 57.060814 20.309309 160.926403 -13.473151 0.485384 2.566008 12.221366 1.669684 0.172115 0.964611 0.048848 0.293867 1.643871 0.084949 2.110803 11.375950 0.771760 1.971383 16.935170 -1.307551 4.095511 -4.271586 -3.095125 1.620246 12.524915 1.450141 -5.850001 -11.485459 -8.975285 169.084962 -78.588583 -147.127941 -2.169463 0.956513 -29.847268 -5.727147 13.260076 -3.355653 13.744703 -10.632168 3.393681 152.920217 -77.640987 -173.691650 -5.179012 9.506044 5.933183 -7.662259 -59.602936 2.715119 -33.140121 72.132009 -35.217455 -2.817804 -6.276641 0.774368 -0.702953 0.954714 -0.339898 1.306598 -61.776593 13.837719 39.809377 63.965707 33.483925 -18.234199 -8.706907 5.147425 0.114648 -0.851305 0.094980
